<?xml version="1.0" standalone="no"?>
<!DOCTYPE svg PUBLIC "-//W3C//DTD SVG 20010904//EN"
 "http://www.w3.org/TR/2001/REC-SVG-20010904/DTD/svg10.dtd">
<svg version="1.0" xmlns="http://www.w3.org/2000/svg"
 width="350.000000pt" height="350.000000pt" viewBox="0 0 350.000000 350.000000"
 preserveAspectRatio="xMidYMid meet">
<metadata>
Created by potrace 1.11, written by Peter Selinger 2001-2013
</metadata>
<g transform="translate(0.000000,350.000000) scale(0.100000,-0.100000)"
fill="#000000" stroke="none">
<path d="M3153 2871 c-159 -55 -283 -232 -381 -546 -94 -300 -188 -772 -204
-1030 -3 -35 -9 -24 -61 112 -113 297 -126 337 -278 893 -22 80 -56 206 -76
280 -19 74 -39 143 -44 153 -17 31 -57 20 -109 -29 -48 -45 -50 -48 -50 -103
0 -167 -47 -531 -95 -736 -63 -271 -184 -558 -287 -684 -93 -113 -204 -169
-314 -158 -68 7 -108 29 -144 79 -72 99 -13 201 240 413 257 215 278 239 301
353 27 128 -21 258 -115 317 -42 26 -59 30 -115 30 -79 -1 -126 -22 -208 -97
l-56 -51 -12 46 c-13 51 -50 105 -94 137 -107 75 -283 65 -380 -23 -21 -19
-53 -38 -69 -42 -39 -8 -92 -66 -126 -138 -28 -61 -36 -66 -56 -41 -8 8 -33
27 -57 41 -59 34 -141 30 -202 -10 -85 -57 -143 -174 -143 -292 -1 -154 71
-234 341 -379 68 -37 148 -83 177 -102 49 -33 64 -47 128 -128 l23 -30 32 85
c36 96 66 163 87 197 l15 23 44 -40 c43 -40 82 -57 107 -49 8 3 -8 27 -42 64
-90 96 -87 81 -37 181 52 103 83 198 92 280 16 141 -60 284 -185 348 l-45 23
30 13 c46 18 154 16 197 -5 65 -31 113 -128 124 -256 6 -58 10 -70 24 -70 13
0 23 15 34 48 87 255 368 287 427 49 22 -90 -6 -196 -71 -270 -17 -20 -82 -75
-144 -121 -222 -168 -346 -337 -346 -472 0 -43 33 -131 65 -174 82 -111 248
-138 387 -63 182 99 343 392 443 808 38 157 80 419 93 570 5 55 11 93 14 85
14 -37 190 -593 212 -670 80 -282 231 -742 262 -802 19 -37 59 -37 110 0 69
50 67 42 69 275 3 248 20 404 75 679 120 599 291 898 515 898 64 0 128 -29
151 -69 19 -33 23 -35 48 -25 38 15 9 124 -48 180 -64 65 -167 82 -273 45z
m-2385 -746 c69 -29 113 -89 151 -204 23 -71 27 -135 10 -196 -12 -48 -90
-215 -99 -215 -12 0 -121 153 -151 212 -72 142 -80 330 -18 405 15 17 61 17
107 -2z m-196 -115 c-2 -54 1 -122 7 -150 20 -94 71 -208 142 -315 46 -69 68
-112 65 -123 -4 -9 -25 -60 -48 -112 l-41 -95 -67 66 c-59 57 -93 79 -248 158
-148 75 -188 100 -229 144 -60 63 -93 143 -93 223 0 85 34 134 120 173 56 25
93 26 145 2 38 -17 115 -91 128 -122 5 -11 9 -10 22 6 12 15 14 32 9 77 -6 53
-4 62 22 99 21 30 59 69 69 69 0 0 -2 -45 -3 -100z"/>
</g>
</svg>
